# AST/ASF file generated using VICON BodyLanguage
# -----------------------------------------------
:version 1.10
:name VICON
:units
  mass 1.0
  length 0.45
  angle deg
:documentation
   .ast/.asf automatically generated from VICON data using
   VICON BodyBuilder and BodyLanguage model FoxedUp or BRILLIANT.MOD
:root
   order TX TY TZ RX RY RZ
   axis XYZ
   position 0 0 0  
   orientation 0 0 0 
:bonedata
  begin
     id 1 
     name lhipjoint
     direction 0.528046 -0.759594 0.379717 
     length 2.39752 
     axis 0 0 0  XYZ
  end
  begin
     id 2 
     name lfemur
     direction 0.34202 -0.939693 0  
     length 7.31175  
     axis 0 0 20  XYZ
    dof rx ry rz
    limits (-160.0 20.0)
           (-70.0 70.0)
           (-60.0 70.0)
  end
  begin
     id 3 
     name ltibia
     direction 0.34202 -0.939693 0   
     length 7.52482   
     axis 0 0 20   XYZ
    dof rx
    limits (-10.0 170.0)
  end
  begin
     id 4 
     name lfoot
     direction 0.0675379 -0.185559 0.980309   
     length 2.00961   
     axis -90 7.62852e-016 20   XYZ
    dof rx rz
    limits (-45.0 90.0)
           (-70.0 20.0)
  end
  begin
     id 5 
     name ltoes
     direction 1.5352e-011 -4.22286e-011 1   
     length 1.01383   
     axis -90 7.62852e-016 20   XYZ
    dof rx
    limits (-90.0 20.0)
  end
  begin
     id 6 
     name rhipjoint
     direction -0.510274 -0.769251 0.384544   
     length 2.36742  
     axis 0 0 0  XYZ 
  end
  begin
     id 7 
     name rfemur
     direction -0.34202 -0.939693 0   
     length 7.45325   
     axis 0 0 -20   XYZ
    dof rx ry rz
    limits (-160.0 20.0)
           (-70.0 70.0)
           (-70.0 60.0)
  end
  begin
     id 8 
     name rtibia
     direction -0.34202 -0.939693 0   
     length 7.49587   
     axis 0 0 -20   XYZ
    dof rx
    limits (-10.0 170.0)
 end
 begin
     id 9 
     name rfoot
     direction -0.106475 -0.292536 0.950308   
     length 2.20898  
     axis -90 -7.62852e-016 -20   XYZ
    dof rx rz
    limits (-45.0 90.0)
           (-20.0 70.0)
  end
  begin
     id 10 
     name rtoes
     direction -1.53597e-011 -4.22023e-011 1   
     length 1.10065   
     axis -90 -7.62852e-016 -20   XYZ
    dof rx
    limits (-90.0 20.0)
  end
  begin
     id 11 
     name lowerback
     direction 0.0260024 0.998026 -0.0571652   
     length 2.11214   
     axis 0 0 0   XYZ
    dof rx ry rz
    limits (-20.0 45.0)
           (-30.0 30.0)
           (-30.0 30.0)
  end
  begin
     id 12 
     name upperback
     direction 0.0216202 0.999542 -0.0211766   
     length 2.11689   
     axis 0 0 0   XYZ
    dof rx ry rz
    limits (-20.0 45.0)
           (-30.0 30.0)
           (-30.0 30.0)
  end
  begin
     id 13 
     name thorax
     direction 0.00883312 0.999944 0.00589057   
     length 2.11821   
     axis 0 0 0   XYZ
    dof rx ry rz
    limits (-20.0 45.0)
           (-30.0 30.0)
           (-30.0 30.0)
  end
  begin
     id 14 
     name lowerneck
     direction -0.059386 0.994433 0.0870401   
     length 1.81176   
     axis 0 0 0   XYZ
    dof rx ry rz
    limits (-20.0 45.0)
           (-30.0 30.0)
           (-30.0 30.0)
  end
  begin
     id 15 
     name upperneck
     direction 0.0506457 0.97328 -0.223967   
     length 1.82382   
     axis 0 0 0   XYZ
    dof rx ry rz
    limits (-20.0 45.0)
           (-30.0 30.0)
           (-30.0 30.0)
  end
  begin
     id 16
     name head
     direction 0.0205902 0.996147 -0.0852487  
     length 1.84805  
     axis 0 0 0   XYZ
    dof rx ry rz
    limits (-20.0 45.0)
           (-30.0 30.0)
           (-30.0 30.0)
  end
  begin
     id 17 
     name lclavicle
     direction 0.949493 0.303881 -0.0782325  
     length 3.60584  
     axis 0 0 0   XYZ
    dof ry rz
    limits (-20.0 10.0)
           (0.0 20.0)
  end
  begin
     id 18 
     name lhumerus
     direction 1 -4.48965e-011 1.48782e-027   
     length 4.95681   
     axis 180 -30 -90   XYZ
    dof rx ry rz
    limits (-60.0 90.0)
           (-90.0 90.0)
           (-90.0 90.0)
  end
  begin
     id 19
     name lradius
     direction 1 -4.48952e-011 2.06528e-027   
     length 3.40915   
     axis 180 -30 -90   XYZ
    dof rx
    limits (-10.0 170.0)
  end
  begin
     id 20
     name lwrist
     direction 1 -4.48964e-011 1.28021e-027   
     length 1.70457   
     axis -1.61767e-015 90 90   XYZ
    dof ry
    limits (-180.0 0.0)
 end
  begin
     id 21 
     name lhand
     direction 1 -4.49094e-011 2.54887e-027   
     length 0.616403   
     axis -1.63363e-015 90 90   XYZ
    dof rx rz
    limits (-90.0 90.0)
           (-45.0 45.0)
  end
  begin
     id 22 
     name lfingers
     direction 1 -4.49002e-011 5.11407e-027   
     length 0.49696   
     axis -3.26723e-015 90 90   XYZ
    dof rx
    limits (0.0 90.0)
  end
  begin
     id 23
     name lthumb
     direction 0.707107 -6.34998e-011 0.707107   
     length 0.713539   
     axis -90 45 -2.25915e-014   XYZ
    dof rx rz
    limits (-45.0 45.0)
           (-45.0 45.0)
  end
  begin
     id 24 
     name rclavicle
     direction -0.937751 0.334612 -0.0930482   
     length 3.46287  
     axis 0 0 0   XYZ 
    dof ry rz
    limits (-10.0 20.0)
           (-20.0 0.0)
  end
  begin
     id 25 
     name rhumerus
     direction -1 -4.48962e-011 3.59972e-027  
     length 5.352   
     axis 180 30 90   XYZ
    dof rx ry rz
    limits (-90.0 60.0)
           (-90.0 90.0)
           (-90.0 90.0)
  end
  begin
     id 26 
     name rradius
     direction -1 -4.48987e-011 -3.76925e-027   
     length 3.43721   
     axis 180 30 90   XYZ
    dof rx
    limits (-10.0 170.0)
  end
  begin
     id 27 
     name rwrist
     direction -1 -4.48943e-011 1.28112e-027   
     length 1.7186   
     axis -1.61767e-015 -90 -90   XYZ
    dof ry
    limits (-180.0 0.0)
  end
  begin
     id 28
     name rhand
     direction -1 -4.49027e-011 2.55483e-027   
     length 0.72009   
     axis -1.63363e-015 -90 -90   XYZ
    dof rx rz
    limits (-90.0 90.0)
           (-45.0 45.0)
  end
  begin
     id 29
     name rfingers
     direction -1 -4.48827e-011 5.14506e-027   
     length 0.580555   
     axis -3.26723e-015 -90 -90   XYZ
    dof rx
    limits (0.0 90.0)
  end
  begin
     id 30
     name rthumb
     direction -0.707107 -6.34936e-011 0.707107   
     length 0.833564   
     axis -90 -45 2.25915e-014   XYZ
    dof rx rz
    limits (-45.0 45.0)
           (-45.0 45.0)
  end
:hierarchy
  begin
    root lhipjoint rhipjoint lowerback
    lhipjoint lfemur
    lfemur ltibia
    ltibia lfoot
    lfoot ltoes
    rhipjoint rfemur
    rfemur rtibia
    rtibia rfoot
    rfoot rtoes
    lowerback upperback
    upperback thorax
    thorax lowerneck lclavicle rclavicle
    lowerneck upperneck
    upperneck head
    lclavicle lhumerus
    lhumerus lradius
    lradius lwrist
    lwrist lhand lthumb
    lhand lfingers
    rclavicle rhumerus
    rhumerus rradius
    rradius rwrist
    rwrist rhand rthumb
    rhand rfingers
  end

#!OML:ASF H:\Terrain\Patient Classification 1\Terrain2\Thursday\justin.ASF
:FULLY-SPECIFIED
:DEGREES
362
root 28.3397 17.5799 -20.8584 231.499 80.3558 232.385
lowerback 1.88229 0.784963 9.19617
upperback 0.635812 1.44405 5.21521
thorax -0.320962 0.808892 0.219251
lowerneck -15.6378 -2.67002 -7.84542
upperneck 28.2901 -1.02567 0.452569
head 11.9718 -0.999591 1.40807
rclavicle -4.99446e-015 2.70347e-014
rhumerus -23.0475 -7.04132 -76.2068
rradius 36.3577
rwrist -16.3357
rhand -22.6873 13.2221
rfingers 7.12502
rthumb 3.7451 -16.7248
lclavicle -4.99446e-015 2.70347e-014
lhumerus -37.3209 3.18203 87.1723
lradius 32.9574
lwrist 0.78648
lhand -15.2884 19.9479
lfingers 7.12502
lthumb 10.8866 49.6457
rfemur -8.94224 -9.14188 31.3354
rtibia 27.0068
rfoot -15.6431 2.54601
rtoes 12.5471
lfemur -12.4856 -4.64477 -11.058
ltibia 29.694
lfoot -11.3385 -14.3604
ltoes 18.0596
363
root 28.3789 17.5843 -20.8553 231.693 80.4311 232.724
lowerback 1.96589 0.843562 9.03812
upperback 0.626415 1.52791 5.19179
thorax -0.375662 0.847283 0.278039
lowerneck -15.7177 -2.78257 -7.73184
upperneck 28.3725 -1.2063 0.435313
head 12.0273 -1.07248 1.35541
rclavicle -1.49337e-014 2.38542e-014
rhumerus -22.9251 -8.19345 -76.2564
rradius 35.5295
rwrist -15.4629
rhand -22.8036 14.0915
rfingers 7.12502
rthumb 3.63281 -15.8572
lclavicle -1.49337e-014 2.38542e-014
lhumerus -37.2188 3.36843 86.9294
lradius 32.5973
lwrist 0.392594
lhand -15.1 19.7595
lfingers 7.12502
lthumb 11.0683 49.4476
rfemur -8.53027 -7.93344 31.3927
rtibia 26.8524
rfoot -15.6878 1.44755
rtoes 12.5215
lfemur -12.0437 -4.52851 -11.1238
ltibia 29.4453
lfoot -10.4628 -14.9403
ltoes 21.9101
364
root 28.4227 17.5925 -20.8509 231.219 80.6749 232.38
lowerback 1.96658 0.888417 8.68238
upperback 0.648951 1.56934 5.10572
thorax -0.356358 0.86526 0.383126
lowerneck -15.8601 -2.81598 -7.74508
upperneck 28.5174 -1.27579 0.576395
head 12.1172 -1.08963 1.40065
rclavicle 8.94531e-015 5.56597e-015
rhumerus -23.1114 -8.84035 -76.2541
rradius 35.1186
rwrist -15.0068
rhand -22.5757 14.8054
rfingers 7.12502
rthumb 3.8528 -15.1395
lclavicle 8.94531e-015 5.56597e-015
lhumerus -37.1243 3.38621 86.7795
lradius 32.3183
lwrist 0.430618
lhand -15.3242 19.7242
lfingers 7.12502
lthumb 10.852 49.4238
rfemur -8.11707 -7.25909 31.1891
rtibia 26.7319
rfoot -15.8347 0.927776
rtoes 12.2634
lfemur -11.5714 -4.60262 -11.4335
ltibia 29.2113
lfoot -10.6183 -14.5648
ltoes 21.513
365
root 28.4653 17.6037 -20.858 229.766 80.9937 230.821
lowerback 1.68631 0.906821 8.35311
upperback 0.638204 1.53702 4.89905
thorax -0.213424 0.846828 0.356283
lowerneck -16.0072 -2.74766 -7.56374
upperneck 28.6243 -1.20055 0.530871
head 12.1826 -1.04442 1.36422
rclavicle 6.03808e-015 -7.15625e-015
rhumerus -23.6042 -8.69624 -76.3058
rradius 35.2862
rwrist -15.388
rhand -22.3299 14.5932
rfingers 7.12502
rthumb 4.09023 -15.3472
lclavicle 6.03808e-015 -7.15625e-015
lhumerus -36.972 3.40492 86.5979
lradius 32.0675
lwrist 0.59281
lhand -15.6075 19.9174
lfingers 7.12502
lthumb 10.5788 49.6311
rfemur -8.02783 -8.06902 30.6406
rtibia 26.6499
rfoot -15.9304 1.96015
rtoes 12.6056
lfemur -11.3546 -4.99391 -11.9852
ltibia 29.0175
lfoot -11.6426 -13.1651
ltoes 17.0617
366
root 28.5012 17.6119 -20.8618 229.265 81.1968 230.221
lowerback 1.46367 0.873987 8.09794
upperback 0.638183 1.45305 4.79134
thorax -0.0957049 0.804542 0.390837
lowerneck -16.0445 -2.59368 -7.29851
upperneck 28.5303 -1.02086 0.389641
head 12.1393 -0.954424 1.292
rclavicle -7.28049e-015 -2.22639e-014
rhumerus -23.849 -8.603 -76.4359
rradius 35.1321
rwrist -15.4401
rhand -22.3626 14.7837
rfingers 7.12502
rthumb 4.05867 -15.1574
lclavicle -7.28049e-015 -2.22639e-014
lhumerus -36.8045 3.82634 86.2773
lradius 31.7868
lwrist 0.539757
lhand -15.6932 20.0411
lfingers 7.12502
lthumb 10.4961 49.759
rfemur -8.00612 -8.69085 30.3376
rtibia 26.6314
rfoot -16.1481 2.97192
rtoes 12.575
lfemur -11.1974 -5.08623 -12.2904
ltibia 28.8645
lfoot -12.1653 -12.2952
ltoes 13.9082
367
root 28.5328 17.622 -20.8658 228.395 81.2381 229.193
lowerback 1.30608 0.794038 7.7845
upperback 0.528006 1.33197 4.83685
thorax -0.135702 0.740077 0.613159
lowerneck -15.8306 -2.47332 -7.36341
upperneck 28.3562 -0.85178 0.381844
head 12.0197 -0.883303 1.32531
rclavicle 3.52843e-015 2.22639e-014
rhumerus -24.0733 -8.65525 -76.3318
rradius 34.6142
rwrist -14.9313
rhand -22.2641 14.5714
rfingers 7.12502
rthumb 4.15373 -15.3678
lclavicle 3.52843e-015 2.22639e-014
lhumerus -36.7854 4.32932 86.1232
lradius 31.5323
lwrist 0.413281
lhand -15.7184 20.0758
lfingers 7.12502
lthumb 10.4718 49.795
rfemur -8.09332 -8.80805 30.2308
rtibia 26.6703
rfoot -16.4724 2.86301
rtoes 10.4371
lfemur -11.1826 -5.23657 -12.4599
ltibia 28.7401
lfoot -11.722 -12.6094
ltoes 17.3905
368
root 28.566 17.6244 -20.8774 226.29 81.1837 226.994
lowerback 1.2021 0.740689 7.58272
upperback 0.402844 1.25334 4.80778
thorax -0.213896 0.695086 0.695338
lowerneck -15.7411 -2.51909 -7.41629
upperneck 28.3885 -0.883504 0.318725
head 12.0171 -0.909446 1.30677
rclavicle 3.42158e-014 2.70347e-014
rhumerus -24.4729 -9.13259 -76.1288
rradius 34.1899
rwrist -14.322
rhand -21.6067 14.4965
rfingers 7.12502
rthumb 4.78857 -15.4294
lclavicle 3.42158e-014 2.70347e-014
lhumerus -36.7845 4.42465 86.1011
lradius 31.3184
lwrist 0.378768
lhand -15.6975 20.1623
lfingers 7.12502
lthumb 10.492 49.8805
rfemur -8.13169 -9.11489 30.006
rtibia 26.8049
rfoot -16.6468 2.77333
rtoes 9.21291
lfemur -11.1597 -5.55352 -12.7289
ltibia 28.7281
lfoot -11.095 -13.2164
ltoes 22.7718
